<svg width="331" height="53" viewBox="0 0 331 53" fill="none" xmlns="http://www.w3.org/2000/svg">
<rect width="331" height="53" rx="20" fill="#D9D9D9" fill-opacity="0.55"/>
<path d="M87.815 26.7326C87.815 35.5121 95.1782 42.6503 104.211 42.6503C113.244 42.6503 120.607 35.5121 120.607 26.7326C120.607 17.9531 113.244 10.815 104.211 10.815C95.1782 10.815 87.815 17.9531 87.815 26.7326ZM90.5573 26.7326C90.5573 19.4417 96.6691 13.4873 104.211 13.4873C111.753 13.4873 117.864 19.4417 117.864 26.7326C117.864 34.0236 111.753 39.9779 104.211 39.9779C96.6691 39.9779 90.5573 34.0236 90.5573 26.7326Z" fill="#292D32" fill-opacity="0.38" stroke="black" stroke-width="0.37"/>
<path d="M119.851 43.7951C120.125 44.0611 120.473 44.185 120.818 44.185C121.163 44.185 121.511 44.0611 121.785 43.7951C122.318 43.2773 122.318 42.4204 121.785 41.9026L118.622 38.8328C118.091 38.318 117.218 38.318 116.688 38.8328C116.154 39.3506 116.154 40.2075 116.688 40.7253L119.851 43.7951Z" fill="#292D32" fill-opacity="0.38" stroke="black" stroke-width="0.37"/>
<path d="M146.563 26.9297L144.445 27.3047C144.357 27.0339 144.216 26.776 144.023 26.5312C143.836 26.2865 143.581 26.0859 143.258 25.9297C142.935 25.7734 142.531 25.6953 142.047 25.6953C141.385 25.6953 140.833 25.8437 140.391 26.1406C139.948 26.4323 139.727 26.8099 139.727 27.2734C139.727 27.6745 139.875 27.9974 140.172 28.2422C140.469 28.487 140.948 28.6875 141.609 28.8437L143.516 29.2812C144.62 29.5365 145.443 29.9297 145.984 30.4609C146.526 30.9922 146.797 31.6823 146.797 32.5313C146.797 33.25 146.589 33.8906 146.172 34.4531C145.76 35.0104 145.185 35.4479 144.445 35.7656C143.711 36.0833 142.859 36.2422 141.891 36.2422C140.547 36.2422 139.451 35.9557 138.602 35.3828C137.753 34.8047 137.232 33.9844 137.039 32.9219L139.297 32.5781C139.438 33.1667 139.727 33.612 140.164 33.9141C140.602 34.2109 141.172 34.3594 141.875 34.3594C142.641 34.3594 143.253 34.2005 143.711 33.8828C144.169 33.5599 144.398 33.1667 144.398 32.7031C144.398 32.3281 144.258 32.013 143.977 31.7578C143.701 31.5026 143.276 31.3099 142.703 31.1797L140.672 30.7344C139.552 30.4792 138.724 30.0729 138.188 29.5156C137.656 28.9583 137.391 28.2526 137.391 27.3984C137.391 26.6901 137.589 26.0703 137.984 25.5391C138.38 25.0078 138.927 24.5937 139.625 24.2969C140.323 23.9948 141.122 23.8438 142.023 23.8438C143.32 23.8438 144.341 24.125 145.086 24.6875C145.831 25.2448 146.323 25.9922 146.563 26.9297ZM154.537 36.2422C153.355 36.2422 152.337 35.9896 151.482 35.4844C150.633 34.974 149.977 34.2578 149.514 33.3359C149.055 32.4089 148.826 31.3229 148.826 30.0781C148.826 28.849 149.055 27.7656 149.514 26.8281C149.977 25.8906 150.623 25.1589 151.451 24.6328C152.285 24.1068 153.258 23.8438 154.373 23.8438C155.05 23.8438 155.706 23.9557 156.342 24.1797C156.977 24.4036 157.548 24.7552 158.053 25.2344C158.558 25.7135 158.956 26.3359 159.248 27.1016C159.54 27.862 159.686 28.7865 159.686 29.875V30.7031H150.146V28.9531H157.396C157.396 28.3385 157.271 27.7943 157.021 27.3203C156.771 26.8411 156.42 26.4635 155.967 26.1875C155.519 25.9115 154.993 25.7734 154.389 25.7734C153.732 25.7734 153.16 25.9349 152.67 26.2578C152.186 26.5755 151.811 26.9922 151.545 27.5078C151.285 28.0182 151.154 28.5729 151.154 29.1719V30.5391C151.154 31.3411 151.295 32.0234 151.576 32.5859C151.863 33.1484 152.261 33.5781 152.771 33.875C153.282 34.1667 153.878 34.3125 154.561 34.3125C155.003 34.3125 155.407 34.25 155.771 34.125C156.136 33.9948 156.451 33.8021 156.717 33.5469C156.982 33.2917 157.186 32.9766 157.326 32.6016L159.537 33C159.36 33.651 159.042 34.2214 158.584 34.7109C158.131 35.1953 157.561 35.5729 156.873 35.8437C156.191 36.1094 155.412 36.2422 154.537 36.2422ZM165.77 36.2656C165.009 36.2656 164.322 36.125 163.707 35.8437C163.092 35.5573 162.605 35.1432 162.246 34.6016C161.892 34.0599 161.715 33.3958 161.715 32.6094C161.715 31.9323 161.845 31.375 162.105 30.9375C162.366 30.5 162.717 30.1536 163.16 29.8984C163.603 29.6432 164.098 29.4505 164.645 29.3203C165.191 29.1901 165.749 29.0911 166.316 29.0234C167.035 28.9401 167.618 28.8724 168.066 28.8203C168.514 28.763 168.84 28.6719 169.043 28.5469C169.246 28.4219 169.348 28.2187 169.348 27.9375V27.8828C169.348 27.2005 169.155 26.6719 168.77 26.2969C168.389 25.9219 167.822 25.7344 167.066 25.7344C166.28 25.7344 165.66 25.9089 165.207 26.2578C164.759 26.6016 164.449 26.9844 164.277 27.4062L162.082 26.9062C162.342 26.1771 162.723 25.5885 163.223 25.1406C163.728 24.6875 164.309 24.3594 164.965 24.1562C165.621 23.9479 166.311 23.8438 167.035 23.8438C167.514 23.8438 168.022 23.901 168.559 24.0156C169.1 24.125 169.605 24.3281 170.074 24.625C170.548 24.9219 170.936 25.3464 171.238 25.8984C171.54 26.4453 171.691 27.1563 171.691 28.0313V36H169.41V34.3594H169.316C169.165 34.6615 168.939 34.9583 168.637 35.25C168.335 35.5417 167.947 35.7839 167.473 35.9766C166.999 36.1693 166.431 36.2656 165.77 36.2656ZM166.277 34.3906C166.923 34.3906 167.475 34.263 167.934 34.0078C168.397 33.7526 168.749 33.4193 168.988 33.0078C169.233 32.5911 169.355 32.1458 169.355 31.6719V30.125C169.272 30.2083 169.111 30.2865 168.871 30.3594C168.637 30.4271 168.368 30.487 168.066 30.5391C167.764 30.5859 167.47 30.6302 167.184 30.6719C166.897 30.7083 166.658 30.7396 166.465 30.7656C166.012 30.8229 165.598 30.9193 165.223 31.0547C164.853 31.1901 164.556 31.3854 164.332 31.6406C164.113 31.8906 164.004 32.224 164.004 32.6406C164.004 33.2187 164.217 33.6562 164.645 33.9531C165.072 34.2448 165.616 34.3906 166.277 34.3906ZM174.803 36V24H177.061V25.9062H177.186C177.404 25.2604 177.79 24.7526 178.342 24.3828C178.899 24.0078 179.529 23.8203 180.232 23.8203C180.378 23.8203 180.55 23.8255 180.748 23.8359C180.951 23.8464 181.11 23.8594 181.225 23.875V26.1094C181.131 26.0833 180.964 26.0547 180.725 26.0234C180.485 25.987 180.245 25.9687 180.006 25.9687C179.454 25.9687 178.962 26.0859 178.529 26.3203C178.102 26.5495 177.764 26.8698 177.514 27.2812C177.264 27.6875 177.139 28.151 177.139 28.6719V36H174.803ZM187.871 36.2422C186.71 36.2422 185.71 35.9792 184.871 35.4531C184.038 34.9219 183.397 34.1901 182.949 33.2578C182.501 32.3255 182.277 31.2578 182.277 30.0547C182.277 28.8359 182.507 27.7604 182.965 26.8281C183.423 25.8906 184.069 25.1589 184.902 24.6328C185.736 24.1068 186.717 23.8438 187.848 23.8438C188.759 23.8438 189.572 24.013 190.285 24.3516C190.999 24.6849 191.574 25.1536 192.012 25.7578C192.454 26.362 192.717 27.0677 192.801 27.875H190.527C190.402 27.3125 190.116 26.8281 189.668 26.4219C189.225 26.0156 188.632 25.8125 187.887 25.8125C187.236 25.8125 186.665 25.9844 186.176 26.3281C185.691 26.6667 185.314 27.151 185.043 27.7812C184.772 28.4062 184.637 29.1458 184.637 30C184.637 30.875 184.77 31.6302 185.035 32.2656C185.301 32.901 185.676 33.3932 186.16 33.7422C186.65 34.0911 187.225 34.2656 187.887 34.2656C188.329 34.2656 188.73 34.1849 189.09 34.0234C189.454 33.8568 189.759 33.6198 190.004 33.3125C190.254 33.0052 190.428 32.6354 190.527 32.2031H192.801C192.717 32.9792 192.465 33.6719 192.043 34.2812C191.621 34.8906 191.056 35.3698 190.348 35.7187C189.645 36.0677 188.819 36.2422 187.871 36.2422ZM197.635 28.875V36H195.299V20H197.604V25.9531H197.752C198.033 25.3073 198.463 24.7943 199.041 24.4141C199.619 24.0339 200.374 23.8438 201.307 23.8438C202.13 23.8438 202.848 24.013 203.463 24.3516C204.083 24.6901 204.562 25.1953 204.9 25.8672C205.244 26.5339 205.416 27.3672 205.416 28.3672V36H203.08V28.6484C203.08 27.7682 202.854 27.0859 202.4 26.6016C201.947 26.112 201.317 25.8672 200.51 25.8672C199.958 25.8672 199.463 25.9844 199.025 26.2187C198.593 26.4531 198.252 26.7969 198.002 27.25C197.757 27.6979 197.635 28.2396 197.635 28.875Z" fill="#4E3D3D" fill-opacity="0.61"/>
</svg>
